# ProBuilder 5.2.3
# https://unity3d.com/unity/features/worldbuilding/probuilder
# 22/10/2024 06:24:49 p. m.

mtllib ./Slice.mtl
o Slice

g Prism
v 0.089 -1 2
v -0.089 -1 2
v 5.304813E-09 -0.9999996 0
v -0.089 1 2.000002
v 5.304813E-09 1 2.145767E-06
v 0.089 1 2.000002

vt 0 5.960464E-08
vt 1 5.960464E-08
vt 0.5 1
vt -5.960464E-08 -0.4472136
vt 0.9999999 -0.4472136
vt -5.960464E-08 0.6708204
vt 0.9999999 0.6708204
vt -1 5.960464E-08
vt -0.5 1
vt -0.9999999 5.331201E-08
vt -0.9999999 1.118034
vt 5.960464E-08 1.118034
vt 0 0.9999999
vt -1 0.9999999

vn 0 -1 -2.682209E-07
vn -0.9990113 5.034591E-08 -0.04445601
vn 0 1 2.384186E-07
vn 0.9990113 5.03459E-08 -0.04445601
vn 0 -1.132488E-06 1

usemtl ProBuilderDefault
f 1/1/1 2/2/1 3/3/1
f 4/8/3 6/1/3 5/9/3
f 3/6/2 2/4/2 4/5/2
f 4/5/2 5/7/2 3/6/2
f 5/11/4 6/10/4 1/1/4
f 1/1/4 3/12/4 5/11/4
f 4/14/5 2/8/5 1/1/5
f 1/1/5 6/13/5 4/14/5

